<mxfile host="app.diagrams.net" modified="2023-08-03T10:21:30.634Z" agent="Mozilla/5.0 (X11; Linux x86_64) AppleWebKit/537.36 (KHTML, like Gecko) Chrome/114.0.0.0 Safari/537.36" etag="L2qU7-vBmBuT3bNGBv7Z" version="21.6.6" type="github">
  <diagram name="Page-1" id="2LevrXQxvPdMQUBmHrdK">
    <mxGraphModel dx="1050" dy="637" grid="1" gridSize="10" guides="1" tooltips="1" connect="1" arrows="1" fold="1" page="1" pageScale="1" pageWidth="850" pageHeight="1100" math="0" shadow="0">
      <root>
        <mxCell id="0" />
        <mxCell id="1" parent="0" />
        <mxCell id="g3iPQCYrMhhcmxUZ1taj-17" value="" style="group" vertex="1" connectable="0" parent="1">
          <mxGeometry x="40" y="30" width="60" height="70" as="geometry" />
        </mxCell>
        <mxCell id="g3iPQCYrMhhcmxUZ1taj-1" value="" style="strokeWidth=2;html=1;shape=mxgraph.flowchart.database;whiteSpace=wrap;" vertex="1" parent="g3iPQCYrMhhcmxUZ1taj-17">
          <mxGeometry width="60" height="40" as="geometry" />
        </mxCell>
        <mxCell id="g3iPQCYrMhhcmxUZ1taj-2" value="&lt;font style=&quot;font-size: 16px;&quot;&gt;votes&lt;/font&gt;" style="text;html=1;align=center;verticalAlign=middle;resizable=0;points=[];autosize=1;strokeColor=none;fillColor=none;" vertex="1" parent="g3iPQCYrMhhcmxUZ1taj-17">
          <mxGeometry y="40" width="60" height="30" as="geometry" />
        </mxCell>
        <mxCell id="g3iPQCYrMhhcmxUZ1taj-18" value="" style="group" vertex="1" connectable="0" parent="1">
          <mxGeometry x="180" y="30" width="105" height="70" as="geometry" />
        </mxCell>
        <mxCell id="g3iPQCYrMhhcmxUZ1taj-19" value="" style="strokeWidth=2;html=1;shape=mxgraph.flowchart.database;whiteSpace=wrap;" vertex="1" parent="g3iPQCYrMhhcmxUZ1taj-18">
          <mxGeometry width="60" height="40" as="geometry" />
        </mxCell>
        <mxCell id="g3iPQCYrMhhcmxUZ1taj-20" value="&lt;font style=&quot;font-size: 16px;&quot;&gt;aggregated-votes&lt;/font&gt;" style="text;html=1;align=center;verticalAlign=middle;resizable=0;points=[];autosize=1;strokeColor=none;fillColor=none;" vertex="1" parent="g3iPQCYrMhhcmxUZ1taj-18">
          <mxGeometry x="-45" y="40" width="150" height="30" as="geometry" />
        </mxCell>
        <mxCell id="g3iPQCYrMhhcmxUZ1taj-21" value="" style="group" vertex="1" connectable="0" parent="1">
          <mxGeometry x="320" y="30" width="90" height="70" as="geometry" />
        </mxCell>
        <mxCell id="g3iPQCYrMhhcmxUZ1taj-22" value="" style="strokeWidth=2;html=1;shape=mxgraph.flowchart.database;whiteSpace=wrap;" vertex="1" parent="g3iPQCYrMhhcmxUZ1taj-21">
          <mxGeometry width="60" height="40" as="geometry" />
        </mxCell>
        <mxCell id="g3iPQCYrMhhcmxUZ1taj-23" value="&lt;font style=&quot;font-size: 16px;&quot;&gt;custom-tracks&lt;/font&gt;" style="text;html=1;align=center;verticalAlign=middle;resizable=0;points=[];autosize=1;strokeColor=none;fillColor=none;" vertex="1" parent="g3iPQCYrMhhcmxUZ1taj-21">
          <mxGeometry x="-30" y="40" width="120" height="30" as="geometry" />
        </mxCell>
        <mxCell id="g3iPQCYrMhhcmxUZ1taj-24" value="" style="group" vertex="1" connectable="0" parent="1">
          <mxGeometry x="430" y="30" width="65" height="70" as="geometry" />
        </mxCell>
        <mxCell id="g3iPQCYrMhhcmxUZ1taj-25" value="" style="strokeWidth=2;html=1;shape=mxgraph.flowchart.database;whiteSpace=wrap;" vertex="1" parent="g3iPQCYrMhhcmxUZ1taj-24">
          <mxGeometry width="60" height="40" as="geometry" />
        </mxCell>
        <mxCell id="g3iPQCYrMhhcmxUZ1taj-26" value="&lt;font style=&quot;font-size: 16px;&quot;&gt;rounds&lt;/font&gt;" style="text;html=1;align=center;verticalAlign=middle;resizable=0;points=[];autosize=1;strokeColor=none;fillColor=none;" vertex="1" parent="g3iPQCYrMhhcmxUZ1taj-24">
          <mxGeometry x="-5" y="40" width="70" height="30" as="geometry" />
        </mxCell>
        <mxCell id="g3iPQCYrMhhcmxUZ1taj-27" value="" style="group" vertex="1" connectable="0" parent="1">
          <mxGeometry x="40" y="130" width="60" height="70" as="geometry" />
        </mxCell>
        <mxCell id="g3iPQCYrMhhcmxUZ1taj-28" value="" style="strokeWidth=2;html=1;shape=mxgraph.flowchart.database;whiteSpace=wrap;" vertex="1" parent="g3iPQCYrMhhcmxUZ1taj-27">
          <mxGeometry width="60" height="40" as="geometry" />
        </mxCell>
        <mxCell id="g3iPQCYrMhhcmxUZ1taj-29" value="&lt;font style=&quot;font-size: 16px;&quot;&gt;share&lt;/font&gt;" style="text;html=1;align=center;verticalAlign=middle;resizable=0;points=[];autosize=1;strokeColor=none;fillColor=none;" vertex="1" parent="g3iPQCYrMhhcmxUZ1taj-27">
          <mxGeometry y="40" width="60" height="30" as="geometry" />
        </mxCell>
        <mxCell id="g3iPQCYrMhhcmxUZ1taj-30" value="" style="group" vertex="1" connectable="0" parent="1">
          <mxGeometry x="180" y="130" width="115" height="70" as="geometry" />
        </mxCell>
        <mxCell id="g3iPQCYrMhhcmxUZ1taj-31" value="" style="strokeWidth=2;html=1;shape=mxgraph.flowchart.database;whiteSpace=wrap;" vertex="1" parent="g3iPQCYrMhhcmxUZ1taj-30">
          <mxGeometry width="60" height="40" as="geometry" />
        </mxCell>
        <mxCell id="g3iPQCYrMhhcmxUZ1taj-32" value="&lt;font style=&quot;font-size: 16px;&quot;&gt;user-detail-per-voting&lt;/font&gt;" style="text;html=1;align=center;verticalAlign=middle;resizable=0;points=[];autosize=1;strokeColor=none;fillColor=none;" vertex="1" parent="g3iPQCYrMhhcmxUZ1taj-30">
          <mxGeometry x="-55" y="40" width="170" height="30" as="geometry" />
        </mxCell>
        <mxCell id="g3iPQCYrMhhcmxUZ1taj-33" value="" style="group" vertex="1" connectable="0" parent="1">
          <mxGeometry x="320" y="130" width="60" height="70" as="geometry" />
        </mxCell>
        <mxCell id="g3iPQCYrMhhcmxUZ1taj-34" value="" style="strokeWidth=2;html=1;shape=mxgraph.flowchart.database;whiteSpace=wrap;" vertex="1" parent="g3iPQCYrMhhcmxUZ1taj-33">
          <mxGeometry width="60" height="40" as="geometry" />
        </mxCell>
        <mxCell id="g3iPQCYrMhhcmxUZ1taj-35" value="&lt;font style=&quot;font-size: 16px;&quot;&gt;bingo&lt;/font&gt;" style="text;html=1;align=center;verticalAlign=middle;resizable=0;points=[];autosize=1;strokeColor=none;fillColor=none;" vertex="1" parent="g3iPQCYrMhhcmxUZ1taj-33">
          <mxGeometry y="40" width="60" height="30" as="geometry" />
        </mxCell>
        <mxCell id="g3iPQCYrMhhcmxUZ1taj-41" value="" style="group" vertex="1" connectable="0" parent="1">
          <mxGeometry x="620" y="150" width="110" height="80" as="geometry" />
        </mxCell>
        <mxCell id="g3iPQCYrMhhcmxUZ1taj-39" value="" style="html=1;verticalLabelPosition=bottom;align=center;labelBackgroundColor=#ffffff;verticalAlign=top;strokeWidth=2;strokeColor=#0080F0;shadow=0;dashed=0;shape=mxgraph.ios7.icons.looking_glass;" vertex="1" parent="g3iPQCYrMhhcmxUZ1taj-41">
          <mxGeometry x="35" width="40" height="40" as="geometry" />
        </mxCell>
        <mxCell id="g3iPQCYrMhhcmxUZ1taj-40" value="&lt;font style=&quot;font-size: 16px;&quot;&gt;OpenSearch&lt;/font&gt;" style="text;html=1;align=center;verticalAlign=middle;resizable=0;points=[];autosize=1;strokeColor=none;fillColor=none;" vertex="1" parent="g3iPQCYrMhhcmxUZ1taj-41">
          <mxGeometry y="50" width="110" height="30" as="geometry" />
        </mxCell>
      </root>
    </mxGraphModel>
  </diagram>
</mxfile>
